<svg width="265" height="117" viewBox="0 0 265 117" fill="none" xmlns="http://www.w3.org/2000/svg">
<g clip-path="url(#clip0_127_135)">
<mask id="mask0_127_135" style="mask-type:luminance" maskUnits="userSpaceOnUse" x="0" y="0" width="265" height="117">
<path d="M264.731 0H0V117H264.731V0Z" fill="white"/>
</mask>
<g mask="url(#mask0_127_135)">
<path opacity="0.974684" d="M0.000133986 92.6893C0.000229118 92.6875 -0.000384311 92.6862 0.000424304 92.6838C0.00135184 92.6813 0.00161214 92.6801 0.00280128 92.6776C0.0150495 92.6633 0.0330014 92.6553 0.0498872 92.6479C0.0880588 92.6311 0.127902 92.6181 0.167738 92.6058C0.299923 92.5655 0.433791 92.5309 0.567451 92.4962C0.860406 92.4188 1.1532 92.3414 1.44472 92.2591C1.92478 92.1235 2.40169 91.9768 2.87475 91.8183C3.83127 91.4989 4.77224 91.133 5.69582 90.7288C6.70481 90.2862 7.69307 89.7978 8.65936 89.2691C9.73555 88.6804 10.7844 88.0428 11.8049 87.3624C12.8964 86.635 13.9555 85.8594 14.9816 85.0422C15.4976 84.6318 16.0053 84.2109 16.5057 83.7819C17.4536 82.9684 18.3742 82.124 19.2697 81.2537C20.231 80.3201 21.1635 79.3569 22.0726 78.372C23.0581 77.3041 24.0162 76.2121 24.9544 75.1028C25.987 73.882 26.9956 72.6409 27.9883 71.3879C28.2432 71.066 28.4967 70.7429 28.7492 70.4197C29.8234 69.0417 30.8775 67.6482 31.9235 66.2492C33.0178 64.7851 34.1031 63.3149 35.1898 61.8452C36.3556 60.2685 37.523 58.6929 38.7012 57.1254C39.233 56.4178 39.7676 55.7123 40.3038 55.0079C41.4293 53.5289 42.5685 52.0601 43.7351 50.6131C44.8106 49.279 45.9094 47.9632 47.0398 46.675C48.0796 45.4901 49.1461 44.3284 50.2454 43.1981C51.2234 42.1925 52.3865 41.3594 53.2608 40.2627C54.2096 39.0727 55.1877 37.9058 56.2006 36.7695C57.1593 35.6942 58.1493 34.6463 59.1743 33.6336C60.1376 32.6819 61.132 31.7613 62.1596 30.8792C63.1457 30.0328 64.1629 29.2218 65.2117 28.4537C66.2407 27.6998 67.3007 26.9872 68.3911 26.3235C69.2339 25.8101 70.0959 25.3274 70.9728 24.8745C72.1973 24.2425 73.4615 23.6871 74.7567 23.2166C75.8341 22.8254 76.9332 22.4931 78.0478 22.226C79.0916 21.976 80.1492 21.7832 81.2147 21.6535C82.2505 21.5274 83.2932 21.461 84.3364 21.459C85.3952 21.4567 86.4539 21.5216 87.504 21.6557C87.6908 21.6795 87.8776 21.7043 88.0638 21.734C89.099 21.8988 90.123 22.1318 91.1284 22.4271C92.1424 22.7249 93.1373 23.0859 94.1079 23.5035C95.1176 23.938 96.1007 24.4337 97.0527 24.9831C98.068 25.5693 99.0479 26.2167 99.9882 26.9171C100.951 27.6353 101.873 28.4098 102.749 29.2316C103.679 30.104 104.565 31.0237 105.404 31.9828C106.247 32.9447 107.044 33.946 107.796 34.9794C108.572 36.0442 109.3 37.1429 109.984 38.2683C110.699 39.446 111.366 40.6529 111.988 41.8822C112.5 42.8941 112.981 43.9214 113.435 44.9605C113.476 45.0563 113.519 45.1522 113.561 45.2479C113.998 46.2338 114.46 47.2085 114.946 48.171C115.769 49.7989 116.662 51.3917 117.618 52.9454C118.675 54.663 119.81 56.3328 121.014 57.9509C122.389 59.7974 123.854 61.5764 125.4 63.2833C127.08 65.1392 128.855 66.9097 130.712 68.5898C132.539 70.2427 134.446 71.8076 136.422 73.2803C137.22 73.8752 138.028 74.4559 138.848 75.0217C140.862 76.4146 142.937 77.7201 145.062 78.9384C147.305 80.2229 149.603 81.4103 151.946 82.501C154.453 83.6686 157.012 84.7247 159.611 85.6724C162.335 86.666 165.103 87.5395 167.903 88.2947C168.122 88.3535 168.341 88.4117 168.56 88.4693C171.16 89.1502 173.787 89.7321 176.432 90.2076C178.945 90.6589 181.475 91.0136 184.015 91.2649C186.453 91.5057 188.901 91.6512 191.351 91.6951C193.713 91.7366 196.078 91.684 198.435 91.5299C199.809 91.4401 201.18 91.3181 202.546 91.1566C204.197 90.961 205.842 90.7158 207.476 90.4137C208.993 90.1339 210.5 89.8046 211.993 89.4201C213.397 89.0592 214.788 88.6494 216.161 88.1858C217.455 87.7487 218.732 87.264 219.987 86.726C221.207 86.2036 222.406 85.6316 223.576 85.007C224.707 84.4028 225.81 83.7497 226.881 83.0458C227.814 82.4311 228.72 81.7761 229.598 81.0853C234.748 77.0311 239.902 72.9826 245.067 68.9495C247.457 67.083 249.85 65.2203 252.247 63.3638C253.76 62.192 255.276 61.0231 256.795 59.8593C257.795 59.093 258.797 58.3288 259.802 57.5695C260.458 57.0748 261.114 56.5821 261.774 56.0938C262.197 55.781 262.621 55.47 263.048 55.1632C263.318 54.9691 263.589 54.7766 263.864 54.5887C264.005 54.4929 264.145 54.3979 264.289 54.3073C264.382 54.2489 264.474 54.1898 264.572 54.1402C264.608 54.1222 264.643 54.1032 264.682 54.0928C264.695 54.0892 264.71 54.0845 264.723 54.0905L264.724 54.0913C264.724 54.0913 264.726 54.0925 264.727 54.0937C264.728 54.0949 264.729 54.0972 264.729 54.0972C264.73 54.0985 264.731 54.102 264.731 54.102C264.73 54.1043 264.731 54.1056 264.73 54.1079C264.724 54.1359 264.706 54.1595 264.69 54.1822C264.655 54.2301 264.616 54.2746 264.576 54.3185C264.482 54.421 264.384 54.5187 264.285 54.6155C264.058 54.8375 263.824 55.0535 263.589 55.2676C263.1 55.7129 262.604 56.1507 262.107 56.586C261.348 57.2496 260.583 57.907 259.817 58.562C258.694 59.5219 257.566 60.4761 256.436 61.4277C254.735 62.8599 253.029 64.2856 251.321 65.7075C248.86 67.7559 246.394 69.7976 243.924 71.8355C240.554 74.6156 237.177 77.3889 233.797 80.1579C232.804 80.9708 231.813 81.786 230.817 82.5964C229.734 83.4791 228.604 84.305 227.436 85.0738C226.272 85.8408 225.071 86.5515 223.841 87.2077C222.598 87.8707 221.325 88.478 220.029 89.0326C218.682 89.609 217.311 90.129 215.922 90.5957C214.453 91.0897 212.964 91.5243 211.461 91.905C209.843 92.3148 208.21 92.6621 206.567 92.953C205.328 93.1722 204.084 93.3567 202.836 93.5158C200.49 93.8154 198.131 94.0129 195.769 94.1138C193.298 94.219 190.822 94.2184 188.352 94.1181C185.767 94.0135 183.186 93.7993 180.62 93.4823C177.929 93.1505 175.253 92.706 172.599 92.1563C171.019 91.8295 169.448 91.4642 167.885 91.0656C164.667 90.2447 161.489 89.2685 158.367 88.1369C155.664 87.1569 153.004 86.0606 150.399 84.8466C147.919 83.6909 145.489 82.4286 143.12 81.0599C140.799 79.7184 138.537 78.2736 136.347 76.7278C135.437 76.0859 134.54 75.4272 133.656 74.75C131.221 72.8835 128.894 70.8772 126.693 68.7402C124.839 66.94 123.075 65.0482 121.415 63.0698C119.859 61.2174 118.394 59.2896 117.031 57.2926C115.729 55.3853 114.519 53.4147 113.413 51.388C112.469 49.6597 111.603 47.8893 110.813 46.0861C110.283 44.8764 109.715 43.6829 109.105 42.5113C108.544 41.4352 107.948 40.3776 107.312 39.344C106.704 38.3561 106.06 37.3904 105.376 36.4529C104.718 35.5507 104.024 34.6747 103.29 33.8318C102.629 33.0715 101.937 32.3381 101.213 31.6372C101.015 31.4461 100.815 31.2573 100.613 31.0714C99.8119 30.335 98.9722 29.6401 98.0966 28.994C97.3071 28.4121 96.4885 27.8698 95.6427 27.3738C94.852 26.9103 94.0378 26.4873 93.2012 26.1113C92.4099 25.7552 91.5988 25.4415 90.7715 25.1763C89.9995 24.9287 89.2132 24.7235 88.4182 24.5657C88.1575 24.5141 87.8962 24.4697 87.6349 24.4263C86.7971 24.2872 85.9506 24.2026 85.1029 24.1689C84.2539 24.1353 83.403 24.1526 82.5559 24.2162C81.6821 24.2818 80.8126 24.3965 79.9512 24.555C79.0184 24.7267 78.0949 24.9496 77.1858 25.2178C76.1791 25.5147 75.1893 25.8667 74.2199 26.2678C73.4863 26.5715 72.7639 26.9028 72.0552 27.2613C71.6983 27.4418 71.3446 27.6286 70.9939 27.8208C70.0003 28.3656 69.0316 28.9555 68.0882 29.5832C67.1027 30.2392 66.1445 30.9366 65.2136 31.6679C64.2392 32.4335 63.2934 33.2362 62.3755 34.0686C61.3944 34.9582 60.4444 35.8817 59.5218 36.8315C58.5299 37.8528 57.5698 38.9045 56.6362 39.9789C56.0846 40.6137 55.6341 41.344 55.0079 41.9056C53.9705 42.8361 52.963 43.7994 51.9808 44.7877C50.8922 45.8831 49.8349 47.0091 48.8025 48.1573C47.678 49.4078 46.5832 50.6846 45.5091 51.9783C44.3297 53.3989 43.1749 54.8397 42.0325 56.2901C41.7487 56.6505 41.4657 57.0116 41.1832 57.3732C39.6609 59.3219 38.1568 61.2846 36.6521 63.2468C35.5129 64.7325 34.3734 66.2182 33.2224 67.6947C32.3054 68.8709 31.3813 70.0421 30.4425 71.2009C30.0978 71.6269 29.7509 72.0509 29.4022 72.4731C28.3109 73.7954 27.1994 75.101 26.0583 76.3799C25.0758 77.4818 24.0712 78.5639 23.0377 79.6181C22.0842 80.5907 21.1058 81.5397 20.0979 82.4559C19.1064 83.3578 18.0863 84.2282 17.0353 85.0602C16.5714 85.4273 16.1018 85.7876 15.6256 86.1386C14.629 86.874 13.6034 87.571 12.549 88.2217C11.5988 88.8073 10.6251 89.3564 9.62856 89.8603C8.77808 90.2905 7.9109 90.688 7.02771 91.047C6.3641 91.3163 5.69149 91.5645 5.01018 91.7855C4.47465 91.9601 3.93378 92.118 3.38776 92.256C2.96069 92.3637 2.53044 92.4597 2.09716 92.5395C1.79297 92.5952 1.48725 92.6435 1.18008 92.6794C0.982747 92.7029 0.784779 92.7215 0.586286 92.7314C0.472365 92.7376 0.358227 92.7401 0.2442 92.7364C0.195684 92.7351 0.146933 92.7327 0.0989511 92.7246C0.0688659 92.7197 0.0352006 92.7197 0.0105854 92.7005C0.00939627 92.6992 0.00702064 92.6986 0.00583147 92.6974L0.00227508 92.6937L0.000133986 92.6893Z" fill="url(#paint0_linear_127_135)"/>
<path opacity="0.974684" d="M13.5146 67.9535C13.7083 67.2434 14.0525 66.5606 14.312 65.8623C16.346 60.3924 17.1965 54.5255 17.1636 48.7087C17.1403 44.592 16.4465 40.5175 16.1658 36.4178C15.79 30.9276 17.9132 25.3993 21.6569 21.3732C25.531 17.2067 30.9857 14.6638 36.6284 14.0155C42.1503 13.3811 47.7715 14.5189 52.8094 16.7997C59.4672 19.8137 65.1621 24.6359 69.9023 30.1319C76.0271 37.2322 80.4669 45.5581 84.6784 53.8768C90.9223 66.2115 96.2428 79.0214 103.211 90.9814C106.804 97.1484 110.935 103.142 116.387 107.818C119.549 110.53 123.16 112.944 127.289 113.842C129.993 114.431 132.857 114.256 135.462 113.296C139.612 111.765 143.031 108.756 145.785 105.365C150.11 100.039 153.053 93.7572 155.463 87.3854C162.423 68.991 169.918 50.7371 179.306 33.4268C183.555 25.5914 188.256 17.9394 194.034 11.1278C197.228 7.36171 200.881 3.81517 205.356 1.62637C208.299 0.187577 211.77 -0.507998 214.97 0.423721C218.293 1.39091 220.991 3.80147 223.005 6.54117C225.567 10.026 227.37 14.0373 228.526 18.1812C229.069 20.1312 229.358 22.1386 229.705 24.1422C229.756 24.4318 229.648 24.9682 229.529 24.386C228.946 21.5445 228.049 18.7672 226.932 16.0929C225.298 12.1834 223.282 8.32248 220.242 5.3112C218.207 3.29647 215.564 1.69217 212.637 1.5695C209.474 1.43696 206.452 2.76869 203.877 4.49638C199.261 7.59386 195.71 11.9575 192.461 16.3987C185.664 25.6911 180.376 35.9668 175.454 46.3358C168.806 60.3399 163.255 74.8237 157.684 89.2809C155.072 96.0601 151.775 102.678 147.028 108.247C144.581 111.118 141.632 113.609 138.194 115.221C134.827 116.8 130.979 117.406 127.295 116.721C122.24 115.782 117.756 112.937 113.995 109.529C107.9 104.007 103.291 97.0834 99.3471 89.926C92.6799 77.8273 87.3234 65.0774 81.0894 52.7606C77.1417 44.9614 72.9042 37.1742 67.0159 30.6414C62.6474 25.7945 57.5256 21.4871 51.5469 18.7595C46.1408 16.293 39.9557 15.2853 34.1013 16.5562C28.2617 17.824 22.8757 21.5109 19.9846 26.7863C18.1494 30.135 17.5152 34.042 17.8652 37.8452C18.3321 42.9204 18.7087 48.0432 18.1271 53.1286C17.6171 57.5869 16.8341 62.1511 14.6758 66.113C14.3316 66.7445 14.0355 67.4502 13.5146 67.9535Z" fill="url(#paint1_linear_127_135)"/>
<path d="M56.9441 98.064C52.4687 96.2694 54.9285 72.6125 47.1 56.8503C46.2403 55.1493 45.5369 53.7016 45.5369 53.6331C55.1823 57.3843 56.9327 81.0123 57.9775 89.3682C58.0978 90.5357 58.3004 91.5553 58.4277 91.6339C59.5386 92.3186 67.9492 63.9637 69.0092 61.9184C70.1257 59.7652 72.0459 59.1742 73.7023 60.4738C77.0591 63.1076 78.9619 76.6666 79.8413 85.1686C80.1696 88.3412 80.4917 90.9907 80.5569 91.0557C80.7269 91.2254 82.0824 86.58 83.7748 80.0274C91.1886 48.1924 108.997 18.2276 126.868 6.04367C130.499 3.64181 133.513 2.18326 135.488 1.87246L136.872 1.65466L136.174 2.63257C135.423 3.68484 134.368 4.61424 128.284 9.58635C100.557 32.2433 91.0278 67.3388 87.5226 80.969C84.0689 94.3986 82.5006 98.0733 80.223 98.0733C77.7176 98.0733 77.056 96.3368 76.2157 87.5594C75.1607 76.536 72.7248 63.7749 71.9428 65.1734C70.7755 67.262 63.2717 95.3476 59.2333 97.804C58.1736 98.449 57.9631 98.4726 56.9441 98.064ZM120.952 97.0116C113.178 94.1213 113.694 83.3189 112.867 83.3263C112.78 83.3269 112.406 83.8562 112.035 84.5019C109.404 89.0822 103.218 93.99 99.4594 94.4803C88.7012 95.8837 90.9813 70.6241 105.318 62.9244C107.857 61.5605 112.132 60.4715 116.359 64.8694L117.87 66.4406L118.908 65.702C122.638 63.0488 127.847 67.449 130.333 74.2994C131.074 76.3416 131.173 76.2995 131.613 73.7509C135.445 59.7624 143.441 46.9707 152.954 36.1504C156.245 32.4792 160.931 29.8499 161.508 31.3506C161.787 32.0768 160.666 33.6003 156.75 37.8167C143.675 51.8763 135.718 67.6118 133.468 86.6927C133.227 88.9281 132.416 90.2275 131.262 90.2275C129.97 90.2275 129.326 89.1571 128.933 86.3584C125.976 65.2675 120.146 66.6888 119.332 66.9977C118.434 67.3382 119.324 67.4459 118.846 68.2606C118.537 68.7867 117.206 68.3132 116.796 67.5586C116.351 66.5563 113.182 65.0397 111.208 64.8849C108.94 64.7072 107.522 65.3845 104.904 67.8966C91.7248 80.5412 95.0301 96.3313 105.658 86.1671C109.686 82.1681 109.995 81.3813 111.126 72.2701C111.687 67.7461 112.158 66.6894 113.613 66.6894C115.574 66.6894 115.801 67.3029 116.083 73.3782C116.545 83.3437 117.837 89.427 119.998 91.8122C121.338 93.2917 122.531 93.6687 124.825 93.3357C129.597 92.643 130.149 92.6263 130.356 93.1673C130.688 94.0297 129.635 95.1928 127.587 96.2242C125.292 97.3793 122.753 97.6808 120.952 97.0116ZM142.553 72.3128C142.875 64.5692 152.93 52.2353 161.815 57.038C165.677 59.1256 166.743 66.118 162.857 68.3553C149.745 75.9039 146.427 59.6623 150.439 64.7103C152.813 67.6978 163.853 67.8316 161.116 61.81C156.662 52.0088 138.491 72.8081 149.491 79.2864C156.864 83.6284 166.393 81.242 164.648 84.9761C163.703 86.9979 146.893 84.83 143.994 80.1537C142.4 77.5822 142.442 74.9741 142.553 72.3128ZM188.887 89.1113C183.097 87.9642 177.377 85.3902 175.395 83.0397C173.234 80.4781 175.182 80.5381 183.029 83.2756C189.321 85.4713 192.628 86.1046 194.864 85.5431C197.189 84.9594 199.131 83.8203 200.755 82.0882C204.692 77.8905 204.738 72.5865 201.061 70.0564C199.469 68.9613 195.182 66.4554 194.401 67.5381C190.29 73.2371 183.255 76.1844 174.394 76.679C174.394 75.4836 187.145 72.4521 189.916 66.2833C189.849 66.2412 188.253 65.8246 186.371 65.3572C177.791 63.2271 173.331 59.227 172.327 52.7597C171.92 50.1375 172.136 48.4632 173.296 45.263C176.61 36.1238 188.549 26.9214 195.714 30.0929C208.887 35.9241 197.361 61.1828 197.321 61.2705C196.376 63.3391 196.322 63.5991 196.805 63.7687C200.629 65.1115 203.718 66.9011 205.283 68.6803C208.062 71.656 208.103 76.9446 206.437 80.4985C205.088 83.3226 203.254 85.5128 200.959 87.0412C197.358 89.44 193.706 90.0665 188.887 89.1113ZM193.661 59.8636C218.791 6.68686 146.387 52.9984 189.636 62.2397C192.326 62.8148 192.243 62.8637 193.661 59.8636Z" fill="#262525"/>
<path opacity="0.974684" d="M169.932 100.142C169.662 100.156 169.445 100.194 169.279 100.255C169.118 100.312 168.969 100.408 168.832 100.545C168.728 100.644 168.65 100.756 168.598 100.878C168.546 100.996 168.51 101.147 168.492 101.331C168.459 101.576 168.442 101.866 168.442 102.201V107.417C168.442 107.903 168.47 108.264 168.527 108.5C168.583 108.736 168.685 108.925 168.832 109.066C169.092 109.316 169.458 109.453 169.932 109.476V109.639H165.398V109.476C165.673 109.462 165.892 109.425 166.058 109.363C166.228 109.297 166.38 109.198 166.512 109.066C166.659 108.915 166.758 108.724 166.81 108.492C166.867 108.257 166.895 107.898 166.895 107.417V101.091L163.241 109.639H163.092L159.46 101.217V107.417C159.46 107.903 159.486 108.262 159.538 108.492C159.595 108.724 159.696 108.915 159.843 109.066C159.976 109.203 160.125 109.302 160.29 109.363C160.46 109.425 160.68 109.462 160.95 109.476V109.639H157.679V109.476C157.949 109.462 158.166 109.425 158.332 109.363C158.502 109.302 158.654 109.203 158.786 109.066C158.932 108.915 159.032 108.724 159.084 108.492C159.141 108.257 159.169 107.898 159.169 107.417V102.201C159.169 101.984 159.162 101.779 159.148 101.586C159.124 101.237 159.069 100.982 158.984 100.821C158.867 100.6 158.703 100.437 158.495 100.333C158.292 100.224 158.02 100.161 157.679 100.142V99.9793H160.758L163.83 107.545L167.016 99.9793H169.932V100.142ZM177.042 99.9793V100.142C176.772 100.156 176.552 100.194 176.381 100.255C176.211 100.317 176.062 100.416 175.935 100.553C175.779 100.713 175.674 100.911 175.622 101.147C175.575 101.383 175.552 101.789 175.552 102.364V106.37C175.552 107.021 175.575 107.493 175.622 107.785C175.674 108.073 175.776 108.34 175.928 108.585C176.155 108.957 176.434 109.228 176.765 109.399C177.101 109.563 177.521 109.646 178.028 109.646C178.519 109.646 178.988 109.573 179.432 109.427C179.882 109.276 180.255 109.068 180.553 108.804C180.738 108.639 180.873 108.46 180.958 108.267C181.048 108.073 181.107 107.828 181.135 107.53C181.154 107.337 181.164 106.879 181.164 106.157V102.201C181.164 101.715 181.135 101.357 181.078 101.126C181.027 100.894 180.927 100.704 180.78 100.553C180.648 100.416 180.497 100.317 180.327 100.255C180.161 100.194 179.943 100.156 179.674 100.142V99.9793H182.944V100.142C182.675 100.156 182.455 100.194 182.285 100.255C182.119 100.317 181.97 100.416 181.838 100.553C181.691 100.704 181.589 100.897 181.532 101.133C181.48 101.364 181.454 101.72 181.454 102.201V106.667C181.454 107.327 181.402 107.816 181.298 108.132C181.199 108.443 180.998 108.728 180.695 108.988C180.004 109.583 179.018 109.88 177.737 109.88C176.398 109.88 175.412 109.599 174.778 109.038C174.367 108.679 174.121 108.207 174.04 107.622C174.012 107.415 173.998 107.04 173.998 106.497V102.201C173.998 101.715 173.972 101.357 173.92 101.126C173.868 100.894 173.766 100.704 173.615 100.553C173.487 100.416 173.338 100.317 173.168 100.255C173.002 100.194 172.782 100.156 172.508 100.142V99.9793H177.042ZM185.868 109.618L185.89 106.695H186.052C186.252 107.441 186.488 108.028 186.762 108.457C187.277 109.25 187.925 109.646 188.706 109.646C189.25 109.646 189.699 109.464 190.054 109.102C190.409 108.738 190.586 108.278 190.586 107.721C190.586 107.481 190.546 107.235 190.465 106.985C190.39 106.735 190.285 106.521 190.153 106.341C190.016 106.157 189.823 105.98 189.572 105.811C189.325 105.641 188.947 105.426 188.437 105.166C187.987 104.94 187.642 104.749 187.4 104.593C187.164 104.438 186.973 104.28 186.826 104.119C186.419 103.676 186.216 103.135 186.216 102.499C186.216 102.107 186.294 101.729 186.45 101.367C186.611 101.003 186.833 100.692 187.117 100.432C187.618 99.97 188.212 99.7385 188.898 99.7385C189.12 99.7385 189.325 99.762 189.515 99.8097C189.704 99.8518 189.957 99.9391 190.274 100.072C190.51 100.166 190.672 100.227 190.757 100.255C190.842 100.279 190.917 100.291 190.984 100.291C191.149 100.291 191.26 100.171 191.317 99.9298H191.48L191.53 102.739H191.367C191.239 102.291 191.128 101.949 191.033 101.713C190.943 101.472 190.834 101.251 190.707 101.048C190.475 100.68 190.22 100.408 189.94 100.234C189.661 100.055 189.34 99.9651 188.975 99.9651C188.446 99.9651 188.027 100.145 187.72 100.503C187.592 100.649 187.49 100.821 187.415 101.019C187.344 101.217 187.308 101.416 187.308 101.614C187.308 102.402 187.817 103.036 188.834 103.518L189.834 103.999C190.605 104.362 191.161 104.763 191.501 105.202C191.889 105.693 192.083 106.263 192.083 106.914C192.083 107.348 191.995 107.764 191.82 108.16C191.575 108.712 191.206 109.139 190.714 109.441C190.222 109.738 189.643 109.887 188.975 109.887C188.365 109.887 187.779 109.766 187.216 109.526C186.923 109.399 186.748 109.326 186.691 109.307C186.634 109.288 186.571 109.278 186.5 109.278C186.273 109.278 186.116 109.391 186.031 109.618H185.868ZM199.541 99.9793V100.142C199.271 100.156 199.051 100.194 198.881 100.255C198.715 100.317 198.566 100.416 198.433 100.553C198.249 100.741 198.136 101.003 198.093 101.338C198.065 101.588 198.051 101.876 198.051 102.201V107.417C198.051 107.808 198.07 108.117 198.108 108.344C198.145 108.57 198.207 108.752 198.292 108.889C198.415 109.077 198.573 109.219 198.767 109.313C198.961 109.403 199.219 109.458 199.541 109.476V109.639H195.007V109.476C195.281 109.462 195.501 109.425 195.667 109.363C195.837 109.297 195.986 109.198 196.114 109.066C196.265 108.915 196.367 108.724 196.419 108.492C196.471 108.262 196.497 107.903 196.497 107.417V102.201C196.497 101.715 196.471 101.357 196.419 101.126C196.367 100.894 196.265 100.704 196.114 100.553C195.986 100.416 195.837 100.317 195.667 100.255C195.497 100.194 195.276 100.156 195.007 100.142V99.9793H199.541ZM210.936 99.9298L211.021 103.093H210.857C210.805 102.956 210.765 102.852 210.737 102.782C210.571 102.329 210.437 101.991 210.332 101.77C210.148 101.373 209.881 101.01 209.531 100.68C209.266 100.43 208.991 100.248 208.708 100.135C208.424 100.022 208.104 99.9651 207.75 99.9651C207.216 99.9651 206.752 100.081 206.359 100.312C206.014 100.515 205.693 100.807 205.395 101.19C205.096 101.567 204.853 101.999 204.664 102.485C204.394 103.169 204.259 103.947 204.259 104.82C204.259 105.561 204.352 106.228 204.536 106.823C204.72 107.417 204.99 107.915 205.345 108.316C205.997 109.061 206.863 109.434 207.942 109.434C208.481 109.434 208.966 109.342 209.396 109.158C209.827 108.969 210.16 108.705 210.396 108.366C210.671 107.974 210.869 107.446 210.992 106.78L211.155 106.809C211.065 107.554 210.862 108.146 210.545 108.585C210.242 109.004 209.824 109.326 209.29 109.547C208.76 109.769 208.145 109.88 207.445 109.88C206.792 109.88 206.168 109.783 205.572 109.589C204.621 109.278 203.879 108.717 203.344 107.906C202.81 107.089 202.543 106.117 202.543 104.99C202.543 104.126 202.698 103.331 203.01 102.605C203.323 101.874 203.758 101.286 204.316 100.843C204.746 100.503 205.26 100.234 205.856 100.036C206.456 99.8332 207.057 99.7317 207.658 99.7317C208.23 99.7317 208.835 99.84 209.474 100.057L210.056 100.248C210.169 100.291 210.268 100.312 210.353 100.312C210.472 100.312 210.569 100.262 210.645 100.163C210.677 100.116 210.718 100.038 210.765 99.9298H210.936Z" fill="#262525"/>
</g>
</g>
<defs>
<linearGradient id="paint0_linear_127_135" x1="18.2879" y1="70.26" x2="244.148" y2="78.5442" gradientUnits="userSpaceOnUse">
<stop stop-color="#00FFFF"/>
<stop offset="1" stop-color="#00FFFF" stop-opacity="0"/>
</linearGradient>
<linearGradient id="paint1_linear_127_135" x1="17.8289" y1="27.2162" x2="265.256" y2="49.3061" gradientUnits="userSpaceOnUse">
<stop stop-color="#00FFFF"/>
<stop offset="1" stop-color="#00FFFF" stop-opacity="0"/>
</linearGradient>
<clipPath id="clip0_127_135">
<rect width="265" height="117" fill="white"/>
</clipPath>
</defs>
</svg>
